Patient4_TMGait_0pt5_02_right_38_GRF.mot
version=1
nRows=39
nColumns=19
inDegrees=no
endheader
time	F1x	F1y	F1z	M1x	M1y	M1z	F2x	F2y	F2z	M2x	M2y	M2z	EC1x	EC1y	EC1z	EC2x	EC2y	EC2z
49.64	25.8231	833.8516	70.6628	-283.7669	-60.7633	813.2839	-7.9811	0.98891	-10.1073	3.7064	12.3563	9.4185	-0.0592	0.0182	-0.0073	-0.0462	0.0165	0.9585
49.6531	17.8486	819.705	69.4325	-278.9512	-60.4666	794.8278	-5.5549	1.3437	-7.0327	2.8541	8.6914	7.0201	-0.0592	0.0182	-0.0073	-0.0462	0.0165	0.9585
49.6663	11.457	803.491	68.0217	-273.3408	-59.6352	774.3782	-3.5142	1.6957	-4.3401	2.1155	5.4779	5.0503	-0.0592	0.0182	-0.0073	-0.0462	0.0165	0.9585
49.6794	7.0594	785.991	66.4587	-267.2099	-58.2467	752.9088	-1.9648	2.0104	-2.2313	1.5466	2.956	3.6004	-0.0592	0.0182	-0.0073	-0.0462	0.0165	0.9585
49.6926	4.6092	768.0773	64.7804	-260.8754	-56.3675	731.3337	-0.90151	2.2732	-0.73058	1.1537	1.1584	2.6499	-0.0592	0.0182	-0.0073	-0.0462	0.0165	0.9585
49.7057	3.8111	750.701	63.0575	-254.6789	-54.1278	710.5519	-0.26187	2.4729	0.22892	0.91192	0.0064283	2.1129	-0.0592	0.0182	-0.0073	-0.0462	0.0165	0.9585
49.7189	4.2996	734.8231	61.3544	-248.9599	-51.6589	691.4153	0.049505	2.5917	0.75958	0.78001	-0.63275	1.855	-0.0592	0.0182	-0.0073	-0.0462	0.0165	0.9585
49.732	5.7118	721.2748	59.7609	-244.0089	-49.112	674.6242	0.10772	2.6118	0.97361	0.71004	-0.88773	1.7486	-0.0592	0.0182	-0.0073	-0.0462	0.0165	0.9585
49.7451	7.7319	710.7096	58.3562	-240.0481	-46.6246	660.712	0.0021856	2.4907	0.98015	0.64963	-0.88355	1.6458	-0.0592	0.0182	-0.0073	-0.0462	0.0165	0.9585
49.7583	10.1215	703.5736	57.2209	-237.2225	-44.3175	650.0182	-0.21114	2.1767	0.86063	0.54702	-0.7106	1.4237	-0.0592	0.0182	-0.0073	-0.0462	0.0165	0.9585
49.7714	12.7269	700.0953	56.4068	-235.6016	-42.2677	642.6931	-0.47294	1.595	0.68214	0.35023	-0.44936	0.93914	-0.0592	0.0182	-0.0073	-0.0462	0.0165	0.9585
49.7846	15.4527	700.2525	55.9393	-235.1722	-40.5129	638.669	-0.74304	0.68181	0.48389	0.015437	-0.15787	0.081848	-0.0592	0.0182	-0.0073	-0.0462	0.0165	0.9585
49.7977	18.2546	703.7517	55.8169	-235.8333	-39.0613	637.6464	-0.97971	-0.60791	0.3025	-0.48513	0.10626	-1.2271	-0.0592	0.0182	-0.0073	-0.0462	0.0165	0.9585
49.8109	21.1194	710.0393	55.9983	-237.4011	-37.8798	639.1117	-1.1206	-2.2781	0.15586	-1.1538	0.29901	-2.9987	-0.0592	0.0182	-0.0073	-0.0462	0.0165	0.9585
49.824	24.0531	718.34	56.4325	-239.6214	-36.9213	642.3671	-1.1	-4.2326	0.070373	-1.9486	0.36256	-5.1053	-0.0592	0.0182	-0.0073	-0.0462	0.0165	0.9585
49.8371	27.0464	727.7039	57.0532	-242.1801	-36.13	646.5867	-0.81262	-6.2241	0.076247	-2.7616	0.22062	-7.2725	-0.0592	0.0182	-0.0073	-0.0462	0.0165	0.9585
49.8503	30.0846	737.0489	57.8093	-244.7156	-35.4655	650.8458	-0.14291	-7.7455	0.21598	-3.3814	-0.21807	-8.9494	-0.0592	0.0182	-0.0073	-0.0462	0.0165	0.9585
49.8634	33.1295	745.2494	58.6267	-246.85	-34.8798	654.2059	1.0524	-7.993	0.54031	-3.4704	-1.0614	-9.2719	-0.0592	0.0182	-0.0073	-0.0462	0.0165	0.9585
49.8766	36.1197	751.2686	59.4303	-248.2361	-34.332	655.8141	2.8958	-5.8095	1.0968	-2.5436	-2.4059	-6.9801	-0.0592	0.0182	-0.0073	-0.0462	0.0165	0.9585
49.8897	39.0258	754.3203	60.1275	-248.6139	-33.7616	655.0203	5.4604	0.32242	1.927	0.033596	-4.3148	-0.42595	-0.0592	0.0182	-0.0073	-0.0462	0.0165	0.9585
49.9029	41.8106	753.9149	60.6347	-247.8272	-33.1155	651.4387	8.6982	12.1878	3.0331	5.0043	-6.758	12.3285	-0.0592	0.0182	-0.0073	-0.0462	0.0165	0.9585
49.916	44.4682	749.7885	60.8652	-245.8033	-32.3296	644.8641	12.3327	31.5997	4.3647	13.1213	-9.5541	33.2657	-0.0592	0.0182	-0.0073	-0.0462	0.0165	0.9585
49.9291	46.9531	741.7874	60.7165	-242.5151	-31.3299	635.1979	15.7656	59.9491	5.7601	24.9602	-12.2689	63.9183	-0.0592	0.0182	-0.0073	-0.0462	0.0165	0.9585
49.9423	49.2124	729.7284	60.0821	-237.9328	-30.0433	622.3043	17.9286	97.5522	6.9378	40.6422	-14.155	104.6728	-0.0592	0.0182	-0.0073	-0.0462	0.0165	0.9585
49.9554	51.151	713.2838	58.8537	-231.9828	-28.4086	605.9177	17.395	142.7915	7.5785	59.4779	-14.2796	153.8336	-0.0592	0.0182	-0.0073	-0.0462	0.0165	0.9585
49.9686	52.6288	691.9492	56.9576	-224.5322	-26.4134	585.6411	12.9942	191.3736	7.1759	79.6592	-11.6519	206.7906	-0.0592	0.0182	-0.0073	-0.0462	0.0165	0.9585
49.9817	53.4812	665.2002	54.3654	-215.4374	-24.0917	561.0655	5.5064	237.4549	5.2318	98.7324	-6.1141	257.2029	-0.0592	0.0182	-0.0073	-0.0462	0.0165	0.9585
49.9949	53.5313	632.8266	51.1513	-204.6403	-21.5673	532.0531	-3.069	276.475	1.9851	114.8088	1.1979	299.9399	-0.0592	0.0182	-0.0073	-0.0462	0.0165	0.9585
50.008	52.6742	595.1046	47.4904	-192.2232	-19.0196	498.8556	-11.2351	307.5003	-2.0856	127.5083	9.1304	333.7535	-0.0592	0.0182	-0.0073	-0.0462	0.0165	0.9585
50.0211	50.9124	552.7926	43.6057	-178.4106	-16.624	462.1229	-18.4235	333.0581	-6.2706	137.8956	16.6938	361.2823	-0.0592	0.0182	-0.0073	-0.0462	0.0165	0.9585
50.0343	48.3586	506.9544	39.6351	-163.5266	-14.4422	422.7432	-24.5284	356.9352	-10.0811	147.561	23.3408	386.6028	-0.0592	0.0182	-0.0073	-0.0462	0.0165	0.9585
50.0474	45.1349	458.6715	35.6228	-147.9067	-12.4571	381.618	-29.6406	382.4868	-13.2233	157.8955	28.8151	413.3372	-0.0592	0.0182	-0.0073	-0.0462	0.0165	0.9585
50.0606	41.3172	408.881	31.5331	-131.8431	-10.6053	339.5164	-33.778	411.8386	-15.8567	169.7553	33.3012	443.7328	-0.0592	0.0182	-0.0073	-0.0462	0.0165	0.9585
50.0737	36.8902	358.3897	27.3872	-115.5777	-8.902	297.1072	-37.0097	445.9918	-18.3726	183.4991	37.2477	478.8453	-0.0592	0.0182	-0.0073	-0.0462	0.0165	0.9585
50.0869	31.8301	307.9695	23.2591	-99.3384	-7.4101	255.0094	-39.5081	484.9284	-21.3416	199.0428	41.316	518.6956	-0.0592	0.0182	-0.0073	-0.0462	0.0165	0.9585
50.1	26.1257	258.5105	19.295	-83.3938	-6.248	213.9372	-41.502	527.6141	-25.1851	215.8984	46.0346	562.2298	-0.0592	0.0182	-0.0073	-0.0462	0.0165	0.9585
50.1131	19.904	211.126	15.648	-68.0938	-5.5	174.7602	-43.2953	572.329	-30.2012	233.3148	51.8143	607.6905	-0.0592	0.0182	-0.0073	-0.0462	0.0165	0.9585
50.1263	13.4653	167.0888	12.4448	-53.8508	-5.1705	138.4604	-45.0466	617.2044	-36.3284	250.5223	58.6542	653.1078	-0.0592	0.0182	-0.0073	-0.0462	0.0165	0.9585
50.1394	7.2654	127.6321	9.7551	-41.071	-5.1649	105.9819	-46.8198	660.6165	-43.2437	266.8835	66.2404	696.7708	-0.0592	0.0182	-0.0073	-0.0462	0.0165	0.9585
